<svg xmlns="http://www.w3.org/2000/svg" xmlns:xlink="http://www.w3.org/1999/xlink" viewBox="0 0 144.8 144.8" style="enable-background:new 0 0 144.773 144.773" xml:space="preserve"><circle style="fill:#f5c002" cx="72.4" cy="72.4" r="72.4"/><defs><circle id="a" cx="72.4" cy="72.4" r="72.4"/></defs><clipPath id="b"><use xlink:href="#a" style="overflow:visible"/></clipPath><g style="clip-path:url(#b)"><path style="fill:#f1c9a5" d="M107 117c-4.6-8.9-34.6-14.4-34.6-14.4s-30 5.5-34.7 14.3c-3.4 12.3-6.3 27.9-6.3 27.9h82s-2-16.7-6.3-27.9z"/><path style="fill:#e4b692" d="M72.4 102.6s30 5.5 34.7 14.3c4.3 11.2 6.3 27.9 6.3 27.9h-41v-42.2z"/><path style="fill:#f1c9a5" d="M64.2 84.6h16.3v27.3H64.2z"/><path style="fill:#e4b692" d="M72.4 84.6h8.2v27.3h-8.2z"/><path style="opacity:.1;fill:#ddac8c" d="M64.2 97.3c1.5 4.2 7.4 6.6 11.8 6.6 1.5 0 3-.3 4.6-.7V84.6H64.2v12.7z"/><path style="fill:#f1c9a5" d="M93.4 67.4c0-17.1-9.4-26.8-21-26.8s-21 9.7-21 26.8c0 23 9.4 30.9 21 30.9s21-9 21-31z"/><path style="fill:#e4b692" d="M90.2 79.2c-3.8-.4-6.4-4.5-5.7-9.2.6-4.6 4.2-8 8-7.7 3.8.4 6.4 4.5 5.7 9.2-.6 4.6-4.2 8-8 7.7z"/><path style="fill:#f1c9a5" d="M46.7 71.5c-.7-4.7 2-8.8 5.7-9.2 3.8-.4 7.4 3 8 7.7.7 4.7-1.9 8.8-5.7 9.2-3.8.4-7.4-3-8-7.7z"/><path style="fill:#e4b692" d="M93.4 67.4c0-17.1-9.4-26.8-21-26.8v57.7c11.6 0 21-9 21-31z"/><path style="fill:#303030" d="M91.3 81.7c-1.2 3.1-3 7-6.5 7-4.3 0-7.4-3.5-12.4-3.5s-8 3.5-12.4 3.5c-3.5 0-5.4-3.9-6.5-7l-1-6.2V83s1.7 8.6 4.8 10.7c2.6 2.3 11 6.2 15 6.2h.1c4.1 0 12.5-4 15-6.2 3.2-2.1 4.9-10.7 4.9-10.7v-7.4l-1 6.2zM62.2 43.8s4 15.8 25.7 23.8c-2-3.5-2.5-7.8-2.5-7.8s3.6 3.7 9.3 6.7c3.2-6.3 6.9-15.8-1.5-21C85 40.3 65 31 62.2 43.8z"/><path style="fill:#303030" d="M55 66.3s1.6-18 8.3-22c-5.7-2.5-14.5 5.1-13.5 9.8.9 4.6 5.2 12.2 5.2 12.2z"/><path style="fill:#fb621e" d="M107 117c-2.7-5.2-14-9.3-23-11.7a11.6 11.6 0 0 1-23.2 0c-9 2.4-20.4 6.5-23 11.6-3.5 12.3-6.4 27.9-6.4 27.9h82s-2-16.7-6.3-27.9z"/><path style="opacity:.2;fill:#e53d0c" d="M60.1 108.3a12 12 0 0 0 12.3 11 12 12 0 0 0 12.3-11 60.5 60.5 0 0 1 22.7 9.6l-.3-1c-2.8-5.1-14.1-9.2-23.1-11.6a11.6 11.6 0 0 1-23.2 0c-9 2.4-20.4 6.5-23 11.6-.2.3-.2.6-.3 1a61.4 61.4 0 0 1 22.6-9.6z"/><path style="fill:#e53d0c" d="M57.4 106.3a15.2 15.2 0 0 0 30 0l-3.4-1a11.6 11.6 0 0 1-23.2 0l-3.4 1z"/><path style="fill:#fff" d="M75.8 90.7s-.5-2.3-3.4-2.3c-2.7 0-3.4 2.3-3.4 2.3h6.8z"/></g></svg>