<svg xmlns="http://www.w3.org/2000/svg" xmlns:xlink="http://www.w3.org/1999/xlink" viewBox="0 0 144.8 144.8" style="enable-background:new 0 0 144.773 144.773" xml:space="preserve"><circle style="fill:#8dc5d6" cx="72.4" cy="72.4" r="72.4"/><defs><circle id="a" cx="72.4" cy="72.4" r="72.4"/></defs><clipPath id="b"><use xlink:href="#a" style="overflow:visible"/></clipPath><g style="clip-path:url(#b)"><path style="fill:#2e576d" d="M45.2 75c0 11.9-6.4 12.2-6 20 .5 8.6 7.3 8.7 7.3 14.6 0 6-6.2 12.6-.7 19h26.6V56.5L45.2 75.1zM99.5 74.7c0 11.8 6.5 12 6 19.9-.5 8.7-7.2 8.7-7.2 14.6 0 6 6.2 12.7.7 19H72.4V56.2l27.1 18.6z"/><ellipse style="fill:#2e576d" cx="72.4" cy="62.7" rx="29.6" ry="29.8"/><path style="fill:#f1c9a5" d="M107 117c-4.6-8.9-34.6-14.4-34.6-14.4s-30 5.5-34.7 14.3c-3.4 12.3-6.3 27.9-6.3 27.9h82s-2-16.7-6.3-27.9z"/><path style="fill:#e4b692" d="M72.4 102.6s30 5.5 34.7 14.3c4.3 11.2 6.3 27.9 6.3 27.9h-41v-42.2z"/><path style="fill:#f1c9a5" d="M64.2 84.6h16.3v27.3H64.2z"/><path style="fill:#e4b692" d="M72.4 84.6h8.2v27.3h-8.2z"/><path style="opacity:.1;fill:#ddac8c" d="M64.2 97.3c1.5 4.2 7.4 6.6 11.8 6.6 1.5 0 3-.3 4.6-.7V84.6H64.2v12.7z"/><path style="fill:#f1c9a5" d="M93.4 67.4c0-17.1-9.4-26.8-21-26.8s-21 9.7-21 26.8c0 17 9.4 30.9 21 30.9s21-13.9 21-31z"/><path style="fill:#e4b692" d="M90.2 79.2c-3.8-.4-6.4-4.8-5.7-9.7.6-5 4.2-8.7 8-8.2 3.8.4 6.4 4.7 5.7 9.7-.6 5-4.2 8.6-8 8.2z"/><path style="fill:#f1c9a5" d="M46.7 71c-.7-5 2-9.3 5.7-9.7 3.8-.5 7.4 3.2 8 8.2.7 5-1.9 9.3-5.7 9.7-3.8.4-7.4-3.3-8-8.2z"/><path style="fill:#e4b692" d="M93.4 67.4c0-17.1-9.4-26.8-21-26.8v57.7c11.6 0 21-13.9 21-31z"/><path style="fill:#2e576d" d="M95.1 65.4v-.1c0-13.3-9-27.2-21.5-27.2s-24 14-24 27.2v.1h45.5z"/><path style="fill:#fa582a" d="M113.4 144.8s-2-16.7-6.3-27.9c-2.6-4.8-12.8-8.7-21.5-11.1l-13.2 10.4-13.9-10.3c-8.5 2.5-18.3 6.3-20.8 11-3.4 12.3-6.3 27.9-6.3 27.9h82z"/></g></svg>